<svg xmlns="http://www.w3.org/2000/svg" width="512" height="512" fill="none"><style>@media (prefers-color-scheme:light){.path-element{fill:#010104}}</style><path fill="url(#a)" d="M325.215 255c-.003 16.431-5.024 32.505-14.448 46.255-9.425 13.749-22.844 24.578-38.616 31.16v142.086h-70.754V332.376c-15.771-6.572-29.191-17.392-38.616-31.136s-14.445-29.814-14.445-46.24c0-16.427 5.02-32.497 14.445-46.241 9.425-13.743 22.845-24.564 38.616-31.136V35.498h70.754v142.086c15.775 6.578 29.198 17.405 38.623 31.156 9.426 13.75 14.444 29.827 14.441 46.26Z"/><path fill="url(#b)" d="M452.226 32.5v101.308l-73.895 70.538-35.363-33.773-22.774 21.74a104.272 104.272 0 0 0-17.702-16.897L452.226 32.5Z"/><path fill="url(#c)" d="m378.329 305.655 73.895 70.538v101.308L302.508 334.585a104.29 104.29 0 0 0 17.69-16.88l22.768 21.723 35.363-33.773Z"/><path fill="#EFF0F3" d="M130.676 255.001c-.044 22.746 7.979 44.837 22.763 62.676l-93.517 89.286V305.655l35.38-33.767v-33.773l-35.38-33.767V103.04l93.517 89.269c-14.789 17.843-22.813 39.94-22.763 62.692Z" class="path-element"/><defs><linearGradient id="a" x1="321.899" x2="137.191" y1="35.498" y2="40.238" gradientUnits="userSpaceOnUse"><stop stop-color="#2DD282"/><stop offset="1" stop-color="#90F4E8"/></linearGradient><linearGradient id="b" x1="449.418" x2="293.435" y1="32.5" y2="41.157" gradientUnits="userSpaceOnUse"><stop stop-color="#2DD282"/><stop offset="1" stop-color="#90F4E8"/></linearGradient><linearGradient id="c" x1="449.417" x2="293.452" y1="305.655" y2="314.31" gradientUnits="userSpaceOnUse"><stop stop-color="#2DD282"/><stop offset="1" stop-color="#90F4E8"/></linearGradient></defs></svg>
